<?xml version="1.0" encoding="UTF-8"?><svg id="Layer_2" xmlns="http://www.w3.org/2000/svg" viewBox="0 0 197.29 48.04"><defs><style>.cls-1{fill:#fff;}</style></defs><g id="Layer_1-2"><path class="cls-1" d="m68.76,29.47c-.39-.39-1.02-.42-1.44-.06-1.47,1.25-2.97,2-5.01,2-3.87,0-6.34-3.08-6.34-6.9v-.09c0-3.68,2.52-6.81,6.06-6.81,2.12,0,3.58.76,4.93,2,.43.4,1.1.38,1.5-.05l2.91-3.13c.4-.43.37-1.1-.05-1.5-2.22-2.15-5.02-3.43-9.25-3.43-7.65,0-13.11,5.88-13.11,13.01v.09c0,7.14,5.5,12.92,13.01,12.92,4.49,0,7.21-1.55,9.48-3.8.42-.41.42-1.09,0-1.51l-2.71-2.74Z"/><path class="cls-1" d="m85.31,11.68c-3.77,0-6.32.62-8.77,1.61-.52.21-.8.79-.63,1.32l1.13,3.45c.18.56.79.86,1.35.68,1.87-.63,3.6-1,5.89-1,3.55,0,5.36,1.63,5.36,4.57v.42c-1.77-.61-3.59-1.03-6.11-1.03-5.92,0-10.07,2.52-10.07,7.98v.09c0,4.94,3.87,7.65,8.58,7.65,2.64,0,4.65-.73,6.22-1.93.55-.42,1.34-.05,1.34.64,0,.46.37.83.83.83h5.21c.46,0,.83-.37.83-.83v-13.68c0-3.36-.84-6.11-2.7-7.98-1.77-1.77-4.57-2.8-8.44-2.8Zm4.43,16.46c0,2.57-2.24,4.38-5.55,4.38-2.29,0-3.87-1.12-3.87-3.03v-.09c0-2.24,1.87-3.45,4.9-3.45,1.5,0,2.89.28,4.02.72.31.12.5.43.5.76v.71Z"/><path class="cls-1" d="m122.35,11.96h-4.96c-.59,0-1.06.48-1.06,1.06v12.88c0,3.36-1.73,5.08-4.43,5.08s-4.29-1.73-4.29-5.08v-12.88c0-.59-.48-1.06-1.06-1.06h-4.96c-.59,0-1.06.48-1.06,1.06v15.12c0,5.74,3.13,9.28,8.49,9.28,2.66,0,4.5-1.05,5.94-2.44.52-.5,1.38-.12,1.38.6v.55c0,.46.37.83.83.83h5.44c.46,0,.83-.37.83-.83V13.02c0-.59-.48-1.06-1.06-1.06Z"/><path class="cls-1" d="m138.66,21.85c-2.71-.93-5.08-1.59-5.08-2.99v-.09c0-.98.89-1.73,2.61-1.73,1.6,0,3.7.68,5.86,1.83.51.27,1.14.08,1.42-.43l1.7-3.08c.28-.52.09-1.15-.42-1.45-2.55-1.47-5.59-2.33-8.42-2.33-5.04,0-9.14,2.85-9.14,7.93v.09c0,4.85,3.96,6.48,7.46,7.51,2.75.84,5.18,1.35,5.18,2.89v.09c0,1.12-.93,1.87-2.99,1.87s-4.59-.82-7.03-2.4c-.48-.31-1.13-.16-1.45.33l-1.89,2.91c-.31.47-.2,1.11.26,1.44,3.13,2.19,6.71,3.18,9.93,3.18,5.41,0,9.56-2.52,9.56-8.07v-.09c0-4.57-4.06-6.25-7.56-7.42Z"/><path class="cls-1" d="m156.36,26.93h15.52c.44,0,.8-.35.83-.78.02-.38.04-.75.04-1.08,0-7.09-3.82-13.57-12.17-13.57-7.28,0-12.36,5.88-12.36,13.01v.09c0,7.65,5.55,12.92,13.06,12.92,4.07,0,7.2-1.44,9.48-3.83.42-.44.39-1.14-.06-1.54l-2.56-2.27c-.39-.34-.97-.36-1.36-.04-1.7,1.4-3.29,1.98-5.4,1.98-2.79,0-4.85-1.3-5.79-3.79-.2-.53.21-1.11.78-1.11Zm-.95-5.49c.77-2.61,2.56-4.26,5.17-4.26s4.42,1.69,5.08,4.29c.13.52-.27,1.03-.81,1.03h-8.64c-.55,0-.95-.53-.8-1.06Z"/><path class="cls-1" d="m197.08,12.52c-.23-.35-.62-.56-1.04-.56h-2.03c-.52,0-.99.32-1.17.8l-7.09,17.7c-.16.38-.42.6-.7.6h0c-.28,0-.54-.22-.69-.61l-7.62-17.76c-.2-.46-.65-.75-1.15-.75h-2.14c-.43,0-.82.22-1.06.58-.23.36-.26.81-.09,1.2l9.49,21.54c.52,1.15.83,2.99.3,4.31-1.25,3.12-1.91,4.49-4.54,4.42-1.24-.04-2.08-.18-2.88-.51-.64-.26-1.37.04-1.64.66l-.56,1.32c-.13.31-.13.65,0,.96.13.32.37.56.69.7,1.46.61,2.86.8,4.51.9.18.01.36.02.53.02,4.85,0,6.39-4.07,8.03-8.36.22-.58.45-1.17.68-1.77,2.41-6.03,10.23-24.02,10.32-24.21.16-.39.11-.83-.12-1.17Z"/><path class="cls-1" d="m17.21,13.43c.27-.22.41-.45.41-.7,0-.24-.13-.43-.22-.5-.33-.26-.77-.35-1.23-.35-.54,0-1.11.12-1.57.23l-.41.1c-2.08.49-7.6,1.78-12.9,8.34-1.03,1.27-1.47,2.85-1.21,4.32.22,1.27.96,2.35,2.09,3.04,1.2.73,2.64.88,3.95.42,1.38-.49,2.47-1.58,2.97-2.99,1.73-4.81,4.77-9.27,8.13-11.92Z"/><path class="cls-1" d="m12.59,27.02c-.04-.35-.16-.59-.37-.72-.13-.08-.26-.11-.37-.11-.07,0-.12,0-.16.02h0c-.84.3-1.31,1.46-1.59,2.31l-.14.4c-.7,2.02-2.55,7.38.16,15.37.52,1.55,1.62,2.76,3,3.33,1.2.49,2.5.45,3.68-.14,1.26-.62,2.16-1.76,2.47-3.12.33-1.43-.02-2.93-.94-4.11-3.14-4.03-5.29-8.98-5.73-13.24Z"/><path class="cls-1" d="m37.23,33.85c-1.27-.74-2.8-.87-4.2-.35-4.79,1.78-10.16,2.33-14.36,1.47-.1-.02-.2-.03-.29-.03-.21,0-.38.06-.51.17-.18.16-.24.38-.24.49.03.89,1,1.69,1.73,2.22l.34.25c1.71,1.28,6.28,4.67,14.7,4.49,1.63-.03,3.12-.71,4.09-1.86.83-.99,1.18-2.25.98-3.55-.21-1.39-1.03-2.59-2.23-3.29Z"/><path class="cls-1" d="m2.8,14.62c.62.14,1.27-.01,1.78-.42,1.92-1.51,4.17-2.52,6.22-2.79.12-.02.21-.11.22-.22.01-.11-.05-.23-.15-.27l-.34-.15c-.58-.25-1.17-.45-1.79-.59-.55-.12-1.22-.21-2.01-.21-1.08,0-2.38.18-3.9.7-.68.23-1.21.72-1.46,1.32-.15.36-.26.93.07,1.58.27.55.75.92,1.35,1.06Z"/><path class="cls-1" d="m15.22,9.28c.62-.04,1.24-.06,1.86-.06,4.5,0,8.99,1.01,12.31,2.79.31.17.58.2.81.1.22-.1.34-.29.37-.4.23-.86-.47-1.91-1.01-2.62l-.25-.34c-1.27-1.72-4.65-6.27-12.78-8.54C14.95-.22,13.33,0,12.07.82c-1.08.71-1.78,1.82-1.96,3.12-.2,1.39.24,2.77,1.19,3.8,1,1.08,2.43,1.64,3.92,1.54Z"/><path class="cls-1" d="m32.42,12.1c0,.12.09.22.2.24.11.02.23-.03.28-.13l.17-.32c.3-.55.55-1.13.74-1.73.17-.54.32-1.2.39-1.99.09-1.08.03-2.39-.36-3.94-.17-.7-.61-1.27-1.19-1.56-.35-.18-.91-.34-1.58-.07-.57.23-.98.67-1.17,1.25-.19.6-.1,1.26.26,1.81,1.34,2.04,2.15,4.38,2.24,6.44Z"/><path class="cls-1" d="m39.63,8.51c-.5-.35-1.1-.46-1.69-.29-.61.17-1.11.61-1.37,1.21-.97,2.24-2.48,4.2-4.16,5.41-.1.07-.13.19-.09.3.04.11.15.18.26.17l.36-.03c.63-.05,1.25-.15,1.85-.33.54-.15,1.18-.39,1.87-.76.95-.51,2.01-1.28,3.1-2.46.49-.53.73-1.2.66-1.85-.04-.39-.22-.94-.81-1.36Z"/><path class="cls-1" d="m7.2,30.18l-.3.2c-.52.35-1.02.74-1.46,1.18-.4.4-.84.91-1.27,1.57-.59.91-1.14,2.09-1.53,3.65-.17.7-.05,1.4.32,1.94.22.32.64.72,1.36.8.61.07,1.18-.13,1.62-.56.45-.44.68-1.07.62-1.72-.23-2.43.15-4.87,1.03-6.74.05-.11.02-.23-.07-.31-.09-.07-.22-.08-.31-.02Z"/><path class="cls-1" d="m27.61,44c-2.4-.43-4.66-1.45-6.22-2.8-.09-.08-.22-.09-.32-.02-.1.07-.14.19-.1.3l.11.35c.2.6.44,1.18.75,1.73.28.49.65,1.06,1.18,1.65.72.81,1.71,1.66,3.11,2.45.63.35,1.34.43,1.95.21.37-.13.87-.43,1.14-1.1.23-.57.19-1.18-.11-1.71-.31-.55-.85-.94-1.49-1.05Z"/></g></svg>