<svg xmlns="http://www.w3.org/2000/svg" version="1.1" xmlns:xlink="http://www.w3.org/1999/xlink" xmlns:svgjs="http://svgjs.com/svgjs" width="512" height="512"><svg version="1.1" xmlns="http://www.w3.org/2000/svg" xmlns:xlink="http://www.w3.org/1999/xlink" x="0" y="0" width="512" height="512" viewBox="0, 0, 512, 512">
  <g id="SvgjsG1002">
    <rect x="0" y="0" width="512" height="512" fill="#FFFFFF"></rect>
  </g>
  <g id="SvgjsG1001">
    <path d="M0,0 L512,0 L512,512 L0,512 L0,0 z" fill="#CB3727"></path>
  </g>
  <g id="SvgjsG1000">
    <g>
      <path d="M137.845,307.694 L137.845,307.694 L137.845,307.694 L137.845,307.694 z" fill="#FFFFFF"></path>
      <path d="M367.318,179.324 L367.318,179.324 L367.318,179.324 L367.318,179.324 z" fill="#FFFFFF"></path>
      <path d="M372.275,153.414 L372.275,153.414 L372.275,153.414 L372.275,153.414 z" fill="#FFFFFF"></path>
      <path d="M152.837,268.681 C168.831,224.121 196.984,182.806 228.147,158.195 C230.685,156.188 231.924,154.004 231.924,151.703 C231.924,149.46 230.744,147.748 229.918,147.099 C226.908,144.738 222.835,143.912 218.468,143.912 C213.51,143.912 208.198,145.033 203.889,146.096 L200.112,146.981 C180.871,151.526 129.701,163.507 80.536,224.298 C71.034,236.043 66.903,250.68 69.264,264.314 C71.329,276.118 78.176,286.092 88.563,292.467 C99.659,299.254 112.998,300.612 125.215,296.362 C138.023,291.818 148.056,281.784 152.778,268.681 z" fill="#FFFFFF"></path>
      <path d="M185.298,284.086 C184.944,280.899 183.822,278.656 181.875,277.416 C180.694,276.649 179.455,276.413 178.393,276.413 C177.743,276.413 177.271,276.531 176.858,276.649 L176.858,276.649 C169.067,279.423 164.7,290.224 162.103,298.074 L160.863,301.792 C154.371,320.501 137.196,370.197 162.28,444.209 C167.12,458.551 177.271,469.824 190.079,475.135 C201.175,479.739 213.274,479.267 224.193,473.837 C235.82,468.053 244.142,457.547 247.034,444.917 C250.044,431.696 246.915,417.767 238.357,406.849 C209.26,369.489 189.37,323.63 185.239,284.145 z" fill="#FFFFFF"></path>
      <path d="M413.649,347.356 C401.904,340.45 387.739,339.27 374.695,344.11 C330.253,360.576 280.557,365.711 241.663,357.743 C240.718,357.566 239.833,357.448 239.007,357.448 C237.059,357.448 235.465,357.98 234.285,359.042 C232.573,360.458 232.042,362.524 232.042,363.527 C232.337,371.79 241.309,379.227 248.037,384.067 L251.165,386.368 C267.042,398.173 309.3,429.69 387.384,427.978 C402.553,427.683 416.305,421.368 425.217,410.744 C432.948,401.596 436.135,389.851 434.306,377.81 C432.299,364.944 424.804,353.848 413.649,347.297 z" fill="#FFFFFF"></path>
      <path d="M170.838,137.361 C170.72,138.423 169.835,139.308 168.772,139.426 C149.768,141.964 128.874,151.348 111.109,165.336 C106.387,169.055 100.367,170.471 94.642,169.173 C89.153,167.933 84.668,164.451 82.13,159.375 C79.12,153.355 80.123,148.102 81.481,144.738 C83.783,139.131 88.681,134.705 94.937,132.521 C108.984,127.681 121.025,126.029 131.058,126.029 C138.377,126.029 144.633,126.914 149.709,128.035 C155.375,129.275 160.922,131.163 166.293,133.465 L169.421,134.823 C170.425,135.236 170.956,136.298 170.838,137.361 L170.838,137.361 z" fill="#FFFFFF"></path>
      <path d="M209.673,119.713 C215.398,119.359 221.183,119.182 226.908,119.182 C268.635,119.182 310.245,128.507 340.935,145.033 C343.768,146.568 346.306,146.863 348.372,145.978 C350.438,145.092 351.559,143.322 351.795,142.318 C353.92,134.292 347.428,124.612 342.411,118.061 L340.109,114.933 C328.305,99.056 297.024,56.797 221.714,35.786 C207.136,31.714 192.144,33.72 180.517,41.334 C170.484,47.885 164.051,58.155 162.339,70.254 C160.509,83.121 164.523,95.928 173.317,105.43 C182.524,115.405 195.804,120.599 209.673,119.772 z" fill="#FFFFFF"></path>
      <path d="M370.918,148.102 C369.855,147.866 369.088,146.922 369.029,145.86 C368.144,126.737 360.648,105.076 348.254,86.19 C344.949,81.173 344.063,75.035 345.834,69.428 C347.546,64.057 351.382,59.926 356.635,57.801 C362.891,55.322 368.026,56.798 371.272,58.45 C376.643,61.224 380.656,66.477 382.309,72.969 C385.909,87.37 386.499,99.528 385.614,109.503 C384.965,116.821 383.548,122.901 382.014,127.917 C380.302,133.465 377.941,138.836 375.167,143.971 L373.574,146.981 C373.042,147.925 371.98,148.397 370.918,148.161 L370.918,148.161 z" fill="#FFFFFF"></path>
      <path d="M368.085,173.953 C367.672,172.95 368.085,171.77 368.911,171.179 C384.433,159.966 398.421,141.846 407.452,121.071 C409.871,115.523 414.475,111.451 420.141,109.857 C425.571,108.322 431.119,109.267 435.781,112.572 C441.27,116.408 442.864,121.543 443.277,125.143 C443.926,131.163 441.683,137.42 437.198,142.318 C427.105,153.237 417.249,160.379 408.455,165.1 C402.022,168.583 396.12,170.766 391.103,172.183 C385.496,173.776 379.712,174.721 373.928,175.193 L370.564,175.488 C369.501,175.547 368.498,174.957 368.144,173.953 L368.144,173.953 z" fill="#FFFFFF"></path>
      <path d="M138.259,313.537 C139.085,314.245 139.321,315.426 138.849,316.37 C130.645,333.722 127.222,356.327 129.346,378.873 C129.937,384.893 127.812,390.677 123.621,394.808 C119.608,398.763 114.296,400.592 108.63,400.002 C101.961,399.294 98.066,395.576 96,392.625 C92.518,387.667 91.455,381.116 93.049,374.682 C96.59,360.222 101.784,349.245 107.214,340.864 C111.168,334.725 115.3,329.945 119.018,326.286 C123.149,322.154 127.753,318.554 132.593,315.308 L135.426,313.419 C136.311,312.829 137.491,312.888 138.318,313.596 L138.318,313.596 z" fill="#FFFFFF"></path>
      <path d="M263.913,415.289 C264.799,414.698 265.979,414.757 266.805,415.466 C281.325,427.978 302.218,437.421 324.469,441.376 C330.43,442.438 335.446,446.038 338.279,451.114 C340.994,456.072 341.348,461.679 339.283,466.932 C336.804,473.188 332.2,475.903 328.777,477.142 C323.052,479.149 316.501,478.441 310.658,475.194 C297.673,467.876 288.466,459.967 281.856,452.472 C277.016,446.983 273.534,441.789 270.937,437.185 C268.104,432.109 265.802,426.739 264.031,421.191 L262.969,417.944 C262.615,416.941 262.969,415.82 263.913,415.23 L263.913,415.23 z" fill="#FFFFFF"></path>
    </g>
  </g>
</svg><style>@media (prefers-color-scheme: light) { :root { filter: none; } }
@media (prefers-color-scheme: dark) { :root { filter: contrast(0.8333333333333334) brightness(1.7); } }
</style></svg>